<?xml version="1.0" encoding="utf-8"?>
<!-- Generator: Adobe Illustrator 21.0.0, SVG Export Plug-In . SVG Version: 6.00 Build 0)  -->
<svg version="1.1" id="Layer_1" xmlns="http://www.w3.org/2000/svg" xmlns:xlink="http://www.w3.org/1999/xlink" x="0px" y="0px"
	 viewBox="0 0 100 100" style="enable-background:new 0 0 100 100;" xml:space="preserve">
<g>
	<g>
		<path d="M91.3,8.7c-8.2-8.2-21.5-8.2-29.7,0L7.3,63c-0.4,0.4-0.7,1-0.8,1.6l-4,29.8c-0.1,0.8,0.2,1.7,0.8,2.3
			c0.5,0.5,1.2,0.8,1.9,0.8c0.1,0,0.2,0,0.4,0l18-2.4c1.5-0.2,2.6-1.6,2.3-3.1c-0.2-1.5-1.6-2.5-3.1-2.3L8.4,91.6l2.8-20.8
			l21.9,21.9c0.5,0.5,1.2,0.8,1.9,0.8c0.7,0,1.4-0.3,1.9-0.8l54.4-54.3c4-4,6.2-9.2,6.2-14.8C97.5,17.9,95.3,12.6,91.3,8.7L91.3,8.7
			z M62.7,15.3l9.1,9.1L22.3,74.1l-9.1-9.1L62.7,15.3z M35.1,86.9l-8.9-8.9l49.6-49.6l8.9,8.9L35.1,86.9z M88.5,33.3L66.7,11.5
			C69.4,9.2,72.9,8,76.5,8c4.1,0,8,1.6,11,4.5c2.9,2.9,4.5,6.8,4.5,11C92,27.1,90.8,30.6,88.5,33.3L88.5,33.3z M88.5,33.3"/>
	</g>
</g>
</svg>
