<?xml version="1.0" encoding="utf-8"?>
<!-- Generator: Adobe Illustrator 21.0.0, SVG Export Plug-In . SVG Version: 6.00 Build 0)  -->
<svg version="1.1" id="Layer_1" xmlns="http://www.w3.org/2000/svg" xmlns:xlink="http://www.w3.org/1999/xlink" x="0px" y="0px"
	 viewBox="0 0 100 100" style="enable-background:new 0 0 100 100;" xml:space="preserve">
<g>
	<path d="M79.4,68.4c-0.4,0-0.7-0.1-1-0.4L60.7,51.4c-0.6-0.6-0.6-1.5-0.1-2.2c0.6-0.6,1.6-0.6,2.2-0.1l17.6,16.5
		c0.6,0.6,0.6,1.6,0.1,2.2C80.2,68.2,79.8,68.4,79.4,68.4L79.4,68.4z M79.4,68.4"/>
	<path d="M20.6,68.4c-0.4,0-0.8-0.2-1.1-0.5c-0.6-0.6-0.6-1.6,0.1-2.2l17.6-16.5c0.6-0.6,1.6-0.6,2.2,0.1c0.6,0.6,0.6,1.6-0.1,2.2
		L21.6,68C21.3,68.3,21,68.4,20.6,68.4L20.6,68.4z M20.6,68.4"/>
	<path d="M89.8,83.8H10.2c-4.2,0-7.7-3.4-7.7-7.7V23.9c0-4.2,3.4-7.7,7.7-7.7h79.7c4.2,0,7.7,3.4,7.7,7.7v52.2
		C97.5,80.3,94.1,83.8,89.8,83.8L89.8,83.8z M10.2,19.3c-2.5,0-4.6,2.1-4.6,4.6v52.2c0,2.5,2.1,4.6,4.6,4.6h79.7
		c2.5,0,4.6-2,4.6-4.6V23.9c0-2.5-2-4.6-4.6-4.6H10.2z M10.2,19.3"/>
	<path d="M50,57.7c-2,0-4.1-0.7-5.6-2L5,21.4c-0.6-0.6-0.7-1.5-0.1-2.2c0.6-0.6,1.5-0.7,2.2-0.1l39.3,34.3c2,1.7,5.3,1.7,7.2,0
		l39.3-34.3c0.6-0.6,1.6-0.5,2.2,0.1c0.6,0.6,0.5,1.6-0.1,2.2L55.6,55.7C54.1,57,52,57.7,50,57.7L50,57.7z M50,57.7"/>
</g>
</svg>
