<?xml version="1.0" encoding="utf-8"?>
<!-- Generator: Adobe Illustrator 21.0.0, SVG Export Plug-In . SVG Version: 6.00 Build 0)  -->
<svg version="1.1" id="Layer_1" xmlns="http://www.w3.org/2000/svg" xmlns:xlink="http://www.w3.org/1999/xlink" x="0px" y="0px"
	 viewBox="0 0 100 100" style="enable-background:new 0 0 100 100;" xml:space="preserve">
<g>
	<path d="M2.5,62.2v29.5h95V62.2H2.5z M91.9,86.2H8.1V67.8h83.9V86.2z"/>
	<polygon points="19,83.6 21.8,80.9 24.5,83.6 28.4,79.7 25.7,77 28.4,74.3 24.5,70.3 21.8,73 19,70.3 15.1,74.3 17.8,77 15.1,79.7 
			"/>
	<polygon points="37.9,83.6 40.6,80.9 43.3,83.6 47.2,79.7 44.5,77 47.2,74.3 43.3,70.3 40.6,73 37.9,70.3 33.9,74.3 36.6,77 
		33.9,79.7 	"/>
	<polygon points="56.7,83.6 59.4,80.9 62.1,83.6 66.1,79.7 63.4,77 66.1,74.3 62.1,70.3 59.4,73 56.7,70.3 52.8,74.3 55.5,77 
		52.8,79.7 	"/>
	<polygon points="75.5,83.6 78.2,80.9 81,83.6 84.9,79.7 82.2,77 84.9,74.3 81,70.3 78.2,73 75.5,70.3 71.6,74.3 74.3,77 71.6,79.7 
			"/>
	<path d="M50,57.2c13.5,0,24.5-11,24.5-24.5S63.5,8.3,50,8.3s-24.5,11-24.5,24.5C25.5,46.2,36.5,57.2,50,57.2z M50,13.8
		c10.4,0,18.9,8.5,18.9,18.9S60.4,51.6,50,51.6s-18.9-8.5-18.9-18.9S39.6,13.8,50,13.8z"/>
	<polygon points="64.5,27 60.6,23.1 46.8,36.9 38.3,28.4 34.4,32.3 46.8,44.7 	"/>
</g>
</svg>
