<?xml version="1.0" encoding="utf-8"?>
<!-- Generator: Adobe Illustrator 21.0.0, SVG Export Plug-In . SVG Version: 6.00 Build 0)  -->
<svg version="1.1" id="Layer_1" xmlns="http://www.w3.org/2000/svg" xmlns:xlink="http://www.w3.org/1999/xlink" x="0px" y="0px"
	 viewBox="0 0 100 100" style="enable-background:new 0 0 100 100;" xml:space="preserve">
<g>
	<g>
		<path d="M97.4,80.7c-0.3-2.3-1.6-4.3-3.6-5.4L70.4,61.8c-2.9-1.7-6.5-1.2-8.9,1.2l-4.6,4.6c-1.2,1.2-3.2,1.3-4.5,0.3
			c-3.6-2.9-7.2-6.2-10.6-9.6c-3.4-3.4-6.7-7-9.6-10.6c-1.1-1.3-1-3.3,0.3-4.5l4.6-4.6c2.3-2.3,2.8-6,1.2-8.9L24.7,6.2
			c-1.1-2-3.1-3.3-5.4-3.6C17,2.3,14.8,3,13.2,4.7l-7,7c-4.9,4.9-4.9,13.7-0.2,25c4.5,10.8,13,22.8,23.8,33.6S52.5,89.5,63.4,94
			c5.5,2.3,10.5,3.5,14.7,3.5c4.3,0,7.8-1.2,10.3-3.7l7-7C97,85.2,97.7,83,97.4,80.7L97.4,80.7z M68.8,64.5L92.3,78
			c1.2,0.7,1.9,1.8,2.1,3.1c0.1,1.1-0.1,2.2-0.8,3.1L62.4,66.4l1.3-1.3C65.1,63.8,67.2,63.5,68.8,64.5L68.8,64.5z M18.9,5.6
			c1.3,0.2,2.5,0.9,3.1,2.1l13.5,23.4c1,1.7,0.7,3.8-0.7,5.1l-1.2,1.2l-17.9-31c0.7-0.5,1.6-0.8,2.5-0.8C18.5,5.6,18.7,5.6,18.9,5.6
			L18.9,5.6z M86.2,91.6c-3.9,3.9-11.7,3.7-21.6-0.4C54.1,86.8,42.5,78.6,32,68C21.4,57.5,13.2,45.9,8.8,35.4
			c-4.1-9.9-4.3-17.8-0.4-21.6l5.2-5.2l17.9,31.1l-1.2,1.2c-2.3,2.3-2.5,6.1-0.5,8.6c3,3.7,6.3,7.4,9.8,10.9
			c3.5,3.5,7.2,6.8,10.9,9.8c2.6,2.1,6.3,1.9,8.6-0.5l1.1-1.1l31.2,17.8L86.2,91.6z M86.2,91.6"/>
	</g>
</g>
</svg>
