<?xml version="1.0" encoding="utf-8"?>
<!-- Generator: Adobe Illustrator 21.0.0, SVG Export Plug-In . SVG Version: 6.00 Build 0)  -->
<svg version="1.1" id="Layer_1" xmlns="http://www.w3.org/2000/svg" xmlns:xlink="http://www.w3.org/1999/xlink" x="0px" y="0px"
	 viewBox="0 0 100 100" style="enable-background:new 0 0 100 100;" xml:space="preserve">
<g>
	<path d="M82,62.8c-5.9-5.9-13.2-10-21.1-11.9c8.4-4.1,14.1-12.7,14.1-22.6C75.1,14.5,63.8,3.2,50,3.2c-13.8,0-25.1,11.3-25.1,25.1
		c0,9.9,5.8,18.5,14.1,22.6c-7.9,2-15.1,6-21.1,11.9c-8.6,8.6-13.3,19.9-13.3,32c0,1.1,0.9,1.9,1.9,1.9h86.7c1.1,0,1.9-0.9,1.9-1.9
		C95.3,82.8,90.6,71.4,82,62.8L82,62.8z M28.7,28.3c0-11.7,9.5-21.3,21.3-21.3s21.2,9.5,21.2,21.3c0,11.7-9.5,21.3-21.2,21.3
		S28.7,40,28.7,28.3L28.7,28.3z M8.6,92.9c1-22,19.2-39.5,41.4-39.5c22.2,0,40.4,17.5,41.4,39.5H8.6z M8.6,92.9"/>
	<path d="M33.3,63.1c-0.5-0.9-1.7-1.2-2.6-0.7C22,67.6,15.6,76.2,13.3,86c-0.2,1,0.4,2.1,1.4,2.3c0.2,0,0.3,0.1,0.5,0.1
		c0.9,0,1.7-0.6,1.9-1.5c2.1-8.8,7.8-16.5,15.6-21.2C33.6,65.2,33.9,64,33.3,63.1L33.3,63.1z M33.3,63.1"/>
	<path d="M50,57.1c-3,0-5.9,0.3-8.8,1c-1,0.2-1.7,1.3-1.4,2.3c0.2,0.9,1,1.5,1.9,1.5c0.1,0,0.3,0,0.4-0.1c2.6-0.6,5.2-0.9,7.9-0.9
		c1.1,0,1.9-0.9,1.9-1.9C51.9,58,51.1,57.1,50,57.1L50,57.1z M50,57.1"/>
</g>
</svg>
