<?xml version="1.0" encoding="utf-8"?>
<!-- Generator: Adobe Illustrator 21.0.0, SVG Export Plug-In . SVG Version: 6.00 Build 0)  -->
<svg version="1.1" id="Layer_1" xmlns="http://www.w3.org/2000/svg" xmlns:xlink="http://www.w3.org/1999/xlink" x="0px" y="0px"
	 viewBox="0 0 100 100" style="enable-background:new 0 0 100 100;" xml:space="preserve">
<style type="text/css">
	.st0{clip-path:url(#SVGID_2_);}
</style>
<g>
	<g>
		<path d="M7.5,14.7c1.3-1.4,3.3-2,5.2-2c25,0,49.9,0,74.9,0c2.2-0.1,4.5,0.9,5.7,2.8c1.3,1.9,1.1,4.4,1.1,6.6c0,15.6,0,31.3,0,46.9
			c0,1.8-0.4,3.7-1.8,5.1c-1.4,1.5-3.5,2-5.4,2c-11.8,0-23.5,0-35.3,0c0,2.5,0,4.9,0,7.4c3.9,0,7.8,0,11.7,0c0.9,0.1,2-0.1,2.6,0.7
			c0.8,0.9,0.3,2.6-0.9,2.9c-1.4,0.2-2.9,0.1-4.3,0.1c-8.4,0-16.8,0-25.3,0c-0.9,0.1-1.9-0.4-2.2-1.3c-0.4-1.1,0.6-2.4,1.8-2.3
			c4.3-0.1,8.6,0,12.9,0c0-2.5,0-4.9,0-7.4c-11.8,0-23.7,0-35.5,0c-2.2,0.1-4.4-0.8-5.7-2.6c-1.5-1.9-1.3-4.4-1.3-6.6
			c0-15.7,0-31.3,0-47C5.7,18.1,6.1,16.1,7.5,14.7z M10.3,17.1c-0.8,0.7-0.9,1.8-0.9,2.8c0,13.8,0,27.6,0,41.5c27.1,0,54.2,0,81.2,0
			c0-13.7,0-27.3,0-41c0-1,0-2.1-0.7-2.9c-0.7-0.9-1.8-1-2.9-1c-24.2,0-48.5,0-72.7,0C13,16.5,11.5,16.2,10.3,17.1z M9.4,65.1
			c0.1,1.9-0.3,3.9,0.3,5.7c0.5,1.4,2.1,1.7,3.4,1.7c24.7,0,49.4,0,74.1,0c1.3,0.1,2.8-0.4,3.3-1.8c0.5-1.8,0.2-3.8,0.2-5.6
			C63.5,65.1,36.5,65.1,9.4,65.1z"/>
	</g>
	<path d="M52.4,21.6c1.8-1.2,3.5-3.5,5.8-3.3c1.2,1.3-0.7,2.1-1.6,2.9c5.3,0.8,10.1,4.6,11.8,9.7c0.8,2,0.8,4.1,0.9,6.1
		c-0.8,0.2-2.2,0.5-2.1-0.8c-0.3-3.1-1-6.3-3.2-8.6c-1.9-2.4-4.8-3.5-7.5-4.4c0.7,1.1,1.9,3.2-0.3,3.2C54.6,25,53.6,23.2,52.4,21.6z
		"/>
	<path d="M29.9,40.5c0.4-0.1,1.1-0.2,1.4-0.3c0.9,2.1,0.5,4.6,1.7,6.7c1.6,3.9,5.4,6.4,9.4,7.4c-0.4-1-1.8-2.6,0-3.2
		c1.9,0.9,2.7,3.2,4.1,4.7c-1.3,1.3-2.8,2.5-4.5,3.4c-0.5,0.5-2-0.2-1.5-0.9c0.1-0.9,1.2-1.3,1.8-1.9C34.9,55.3,28.7,48,29.9,40.5z"
		/>
	<g>
		<g>
			<defs>
				<rect id="SVGID_1_" x="51.8" y="39.8" width="18" height="20.1"/>
			</defs>
			<clipPath id="SVGID_2_">
				<use xlink:href="#SVGID_1_"  style="overflow:visible;"/>
			</clipPath>
			<path class="st0" d="M69.3,55.5c-0.2,0-0.4,0.1-0.4,0.3c-0.4,1.8-1.8,3-3.5,3c-1.7,0-3.1-1.1-3.6-2.6h1.5v-0.7h-2.6v2.6h0.7v-1.3
				c0.7,1.5,2.3,2.6,4,2.6c2.1,0,3.7-1.4,4.2-3.5C69.6,55.8,69.4,55.6,69.3,55.5L69.3,55.5z M69.3,55.5"/>
			<path class="st0" d="M69.2,51.6V53c-0.7-1.5-2.2-2.4-3.9-2.4c-2,0-3.8,1.3-4.3,3.2c-0.1,0.2,0,0.4,0.2,0.4c0.2,0,0.4,0,0.4-0.2
				c0.5-1.6,2-2.7,3.7-2.7c1.5,0,2.8,0.9,3.4,2.3h-1.5v0.7h2.6v-2.6H69.2z M69.2,51.6"/>
		</g>
		<path d="M60,53.6c-0.3,0-0.5,0-0.8,0c-0.2,0-0.3,0-0.5,0c-0.1,0-0.2,0-0.3,0c-0.2,0-0.4,0-0.6-0.1c0,0-0.1,0-0.1,0
			c-0.2,0-0.4-0.1-0.7-0.1c0,0,0,0,0,0c-1.1-0.2-2.1-0.4-2.8-0.7c0,0,0,0,0,0c-0.1-0.1-0.3-0.1-0.4-0.2c0,0,0,0,0,0
			c-0.1-0.1-0.2-0.1-0.3-0.2c0,0,0,0-0.1,0c-0.1,0-0.2-0.1-0.2-0.2c0,0-0.1,0-0.1-0.1C53,52.1,53,52,52.9,52c0,0-0.1-0.1-0.1-0.1
			c0,0-0.1-0.1-0.1-0.1c0,0-0.1-0.1-0.1-0.1c0,0-0.1-0.1-0.1-0.1c0,0,0-0.1,0-0.1c0,0,0-0.1,0-0.1c0-0.1,0-0.1,0-0.2v-2.7
			c0,0,0,0,0,0c0.1,0.1,0.1,0.1,0.2,0.2c1.2,0.9,3.7,1.7,7.3,1.7c3.6,0,6-0.7,7.3-1.6c0.1-0.1,0.2-0.1,0.3-0.2h0v1.2
			c0,0.2,0.1,0.3,0.3,0.3c0.2,0,0.3-0.1,0.3-0.3v-6.6c0-0.1,0-0.1,0-0.1c-0.4-1.6-3.8-2.9-8.2-2.9c-4.3,0-7.8,1.2-8.2,2.9
			c0,0,0,0.1,0,0.1v12.1c0,0.1,0,0.1,0,0.1c0.4,1.6,3.5,2.5,6.5,2.7c0,0,0,0,0,0c0.2,0,0.3-0.1,0.3-0.3c0-0.2-0.1-0.3-0.3-0.4
			c-3.6-0.3-5.8-1.4-5.9-2.3c0,0,0,0,0,0v-2.8c0,0,0,0,0,0c0.1,0.1,0.1,0.1,0.2,0.2c1.2,0.9,3.7,1.7,7.3,1.7c0.2,0,0.3-0.1,0.3-0.3
			C60.3,53.8,60.2,53.6,60,53.6L60,53.6z M52.7,44.7c0.1,0.1,0.2,0.2,0.3,0.2c0,0,0.1,0,0.1,0c0.1,0.1,0.2,0.1,0.3,0.2
			c0,0,0.1,0,0.1,0.1c0.1,0.1,0.2,0.1,0.4,0.2c0,0,0,0,0.1,0c0.2,0.1,0.3,0.1,0.5,0.2c0,0,0.1,0,0.1,0.1c0.1,0,0.3,0.1,0.4,0.1
			c0.1,0,0.1,0,0.2,0c0.2,0.1,0.4,0.1,0.6,0.2c0,0,0.1,0,0.1,0c0.2,0,0.4,0.1,0.6,0.1c0.1,0,0.1,0,0.2,0c0.2,0,0.4,0.1,0.6,0.1
			c0,0,0.1,0,0.2,0c0.2,0,0.5,0.1,0.8,0.1c0.1,0,0.1,0,0.2,0c0.2,0,0.4,0,0.6,0c0.1,0,0.2,0,0.2,0c0.3,0,0.6,0,0.9,0s0.6,0,0.9,0
			c0.1,0,0.2,0,0.2,0c0.2,0,0.4,0,0.6,0c0.1,0,0.1,0,0.2,0c0.3,0,0.5,0,0.8-0.1c0.1,0,0.1,0,0.2,0c0.2,0,0.4-0.1,0.6-0.1
			c0.1,0,0.1,0,0.2,0c0.2,0,0.4-0.1,0.6-0.1c0,0,0.1,0,0.1,0c0.2,0,0.4-0.1,0.6-0.2c0.1,0,0.1,0,0.2,0c0.1,0,0.3-0.1,0.4-0.1
			c0,0,0.1,0,0.1-0.1c0.2-0.1,0.3-0.1,0.5-0.2c0,0,0,0,0.1,0c0.1-0.1,0.3-0.1,0.4-0.2c0,0,0.1,0,0.1-0.1c0.1-0.1,0.2-0.1,0.3-0.2
			c0,0,0.1,0,0.1,0c0.1-0.1,0.2-0.2,0.3-0.2c0,0,0,0,0.1-0.1c0,0,0.1-0.1,0.1-0.1v2.7c0,0.1,0,0.1,0,0.2c0,0,0,0.1,0,0.1
			c0,0,0,0.1,0,0.1c0,0,0,0.1-0.1,0.1c0,0,0,0.1-0.1,0.1c0,0-0.1,0.1-0.1,0.1c0,0-0.1,0.1-0.1,0.1c-0.1,0-0.1,0.1-0.2,0.1
			c0,0-0.1,0-0.1,0.1c-0.1,0.1-0.2,0.1-0.2,0.2c0,0,0,0-0.1,0c-0.1,0.1-0.2,0.1-0.3,0.2c0,0,0,0,0,0c-0.1,0.1-0.2,0.1-0.4,0.2
			c0,0,0,0,0,0c-0.7,0.3-1.7,0.5-2.8,0.7c0,0,0,0,0,0c-0.2,0-0.4,0.1-0.7,0.1c0,0-0.1,0-0.1,0c-0.2,0-0.4,0-0.6,0.1
			c-0.1,0-0.2,0-0.3,0c-0.2,0-0.3,0-0.5,0c-0.3,0-0.5,0-0.8,0c-0.3,0-0.5,0-0.8,0c-0.2,0-0.3,0-0.5,0c-0.1,0-0.2,0-0.3,0
			c-0.2,0-0.4,0-0.6-0.1c0,0-0.1,0-0.1,0c-0.2,0-0.4-0.1-0.7-0.1c0,0,0,0,0,0c-1.1-0.2-2.1-0.4-2.8-0.7c0,0,0,0,0,0
			c-0.1-0.1-0.3-0.1-0.4-0.2c0,0,0,0,0,0c-0.1-0.1-0.2-0.1-0.3-0.2c0,0,0,0-0.1,0c-0.1,0-0.2-0.1-0.2-0.2c0,0-0.1,0-0.1-0.1
			c-0.1,0-0.1-0.1-0.2-0.1c0,0-0.1-0.1-0.1-0.1c0,0-0.1-0.1-0.1-0.1c0,0-0.1-0.1-0.1-0.1c0,0-0.1-0.1-0.1-0.1c0,0,0-0.1,0-0.1
			c0,0,0-0.1,0-0.1c0-0.1,0-0.1,0-0.2v-2.7C52.5,44.6,52.5,44.6,52.7,44.7C52.6,44.7,52.6,44.7,52.7,44.7L52.7,44.7z M60,40.8
			c4.4,0,7.5,1.3,7.5,2.5c0,1.2-3.1,2.5-7.5,2.5c-4.4,0-7.5-1.3-7.5-2.5C52.5,42.1,55.6,40.8,60,40.8L60,40.8z M60,40.8"/>
	</g>
	<g>
		<path d="M49.7,36.7c1.6-1.9,2.6-4.3,2.6-6.9c0-2.8-1.1-5.3-2.8-7.2c0,0,0,0,0,0c-1.8-1.9-4.4-3.2-7.3-3.3l-0.2,0
			c-0.1,0-0.1,0-0.2,0c-0.1,0-0.1,0-0.2,0l-0.2,0c-2.9,0.1-5.4,1.3-7.3,3.3c0,0,0,0,0,0c0,0,0,0,0,0c-1.8,1.9-2.8,4.4-2.8,7.2
			c0,2.7,1,5.1,2.6,6.9c0,0,0,0,0,0c0,0,0,0,0,0c1.8,2.1,4.5,3.4,7.4,3.5l0.2,0c0.1,0,0.1,0,0.2,0c0.1,0,0.1,0,0.2,0l0.2,0h0
			C45.2,40.1,47.9,38.8,49.7,36.7C49.7,36.7,49.7,36.7,49.7,36.7C49.7,36.7,49.7,36.7,49.7,36.7L49.7,36.7z M32.1,30.1h4.3
			c0,1.5,0.3,3,0.9,4.4c-1,0.4-2,0.9-2.9,1.5C33.1,34.4,32.2,32.4,32.1,30.1L32.1,30.1z M34.6,23.3c0.9,0.6,1.9,1.1,2.9,1.4
			c-0.6,1.5-0.9,3.1-1,4.7h-4.3C32.2,27,33.1,24.9,34.6,23.3L34.6,23.3z M51.6,29.4h-4.3c0-1.6-0.4-3.2-1-4.7c1-0.4,2-0.8,2.9-1.4
			C50.6,24.9,51.5,27,51.6,29.4L51.6,29.4z M41.5,24.7c-1,0-2.1-0.2-3.1-0.5c0.7-1.5,1.8-2.9,3.1-4V24.7z M41.5,25.4v4h-4.3
			c0-1.6,0.4-3.1,1-4.5C39.2,25.2,40.4,25.4,41.5,25.4L41.5,25.4z M42.2,25.4c1.1,0,2.3-0.2,3.4-0.5c0.6,1.4,0.9,2.9,1,4.5h-4.3
			V25.4z M42.2,24.7v-4.5c1.3,1.1,2.3,2.5,3.1,4C44.3,24.5,43.3,24.6,42.2,24.7L42.2,24.7z M46,24c-0.7-1.5-1.7-2.8-2.9-3.9
			c2.1,0.3,4,1.2,5.5,2.6C47.8,23.2,46.9,23.7,46,24L46,24z M37.8,24c-0.9-0.3-1.8-0.7-2.6-1.3c1.5-1.4,3.4-2.4,5.5-2.6
			C39.4,21.2,38.4,22.5,37.8,24L37.8,24z M37.2,30.1h4.3v3.6c-1.2,0-2.4,0.2-3.5,0.6C37.5,33,37.2,31.6,37.2,30.1L37.2,30.1z
			 M41.5,34.5v4.8c-1.4-1.2-2.5-2.7-3.2-4.3C39.3,34.7,40.4,34.5,41.5,34.5L41.5,34.5z M42.2,39.3v-4.8c1.1,0,2.2,0.2,3.2,0.5
			C44.7,36.6,43.6,38.1,42.2,39.3L42.2,39.3z M42.2,33.7v-3.6h4.3c0,1.5-0.3,2.9-0.8,4.2C44.6,34,43.4,33.8,42.2,33.7L42.2,33.7z
			 M47.3,30.1h4.3c-0.1,2.2-0.9,4.3-2.3,5.9c-0.9-0.6-1.9-1.1-2.9-1.5C47,33.1,47.2,31.6,47.3,30.1L47.3,30.1z M34.9,36.6
			c0.9-0.6,1.8-1,2.7-1.4c0.7,1.6,1.7,3,3,4.2C38.4,39.1,36.4,38.1,34.9,36.6L34.9,36.6z M43.2,39.4c1.3-1.2,2.3-2.7,3-4.2
			c1,0.3,1.9,0.8,2.7,1.4C47.4,38.1,45.4,39.1,43.2,39.4L43.2,39.4z M43.2,39.4"/>
	</g>
</g>
</svg>
