<svg xmlns="http://www.w3.org/2000/svg" width="100" height="100" viewBox="0 0 100 100">
  <metadata><?xpacket begin="﻿" id="W5M0MpCehiHzreSzNTczkc9d"?>
<x:xmpmeta xmlns:x="adobe:ns:meta/" x:xmptk="Adobe XMP Core 5.6-c138 79.159824, 2016/09/14-01:09:01        ">
   <rdf:RDF xmlns:rdf="http://www.w3.org/1999/02/22-rdf-syntax-ns#">
      <rdf:Description rdf:about=""/>
   </rdf:RDF>
</x:xmpmeta>
                                                                                                    
                                                                                                    
                                                                                                    
                                                                                                    
                                                                                                    
                                                                                                    
                                                                                                    
                                                                                                    
                                                                                                    
                                                                                                    
                                                                                                    
                                                                                                    
                                                                                                    
                                                                                                    
                                                                                                    
                                                                                                    
                                                                                                    
                                                                                                    
                                                                                                    
                                                                                                    
                           
<?xpacket end="w"?></metadata>
<defs>
    <style>
      .cls-1 {
        fill-rule: evenodd;
      }
    </style>
  </defs>
  <path id="Rectangle_16_copy_9" data-name="Rectangle 16 copy 9" class="cls-1" d="M3,15H23V35H3V15Zm25,0H48V35H28V15Zm25,0H73V35H53V15Zm25,0H98V35H78V15ZM3,40H23V60H3V40Zm25,0H48V60H28V40Zm25,0H73V60H53V40Zm25,0H98V60H78V40ZM3,65H23V85H3V65Zm25,0H48V85H28V65Zm25,0H73V85H53V65Zm25,0H98V85H78V65Z"/>
</svg>
