<?xml version="1.0" encoding="utf-8"?>
<!-- Generator: Adobe Illustrator 21.0.0, SVG Export Plug-In . SVG Version: 6.00 Build 0)  -->
<svg version="1.1" id="Capa_1" xmlns="http://www.w3.org/2000/svg" xmlns:xlink="http://www.w3.org/1999/xlink" x="0px" y="0px"
	 viewBox="-49 141 512 512" style="enable-background:new -49 141 512 512;" xml:space="preserve">
<path d="M463,379.9l-72.5-55.8V216.3h-89.2v39.2L207,183L-49,379.9l53.6,69.7l26.3-20.2V611h151.5V478h55.2v133h145.5V429.4
	l26.3,20.2L463,379.9z M353.1,581h-85.5v-133H152.4v133H60.9V406.3l0,0L207,294l146.1,112.4l0,0V581z M403.9,407.5L403.9,407.5
	L403.9,407.5L207,256.1L10.1,407.5l0,0l0,0l0,0l-17-22.1L207,220.9l124.3,95.6v-70.2h29.1v92.6l60.4,46.5L403.9,407.5L403.9,407.5z"
	/>
</svg>
