<?xml version="1.0" encoding="utf-8"?>
<!-- Generator: Adobe Illustrator 21.0.0, SVG Export Plug-In . SVG Version: 6.00 Build 0)  -->
<svg version="1.1" id="Layer_1" xmlns="http://www.w3.org/2000/svg" xmlns:xlink="http://www.w3.org/1999/xlink" x="0px" y="0px"
	 viewBox="0 0 100 100" style="enable-background:new 0 0 100 100;" xml:space="preserve">
<g>
	<path d="M64.2,21.3C77.1,26.9,85.6,39.7,85.6,54c0,19.7-16,35.6-35.6,35.6c-19.7,0-35.6-15.9-35.6-35.6c0-14.3,8.5-27,21.4-32.7
		c2-0.9,2.9-3.2,2-5.2s-3.2-2.9-5.2-2C16.8,20.9,6.5,36.5,6.5,54C6.5,78,26,97.5,50,97.5C74,97.5,93.5,78,93.5,54
		c0-17.5-10.4-33-26.1-39.9c-2-0.9-4.3,0-5.2,2C61.3,18.1,62.2,20.4,64.2,21.3z"/>
	<path d="M46,6.5v35.6c0,2.2,1.8,4,4,4c2.2,0,4-1.8,4-4V6.5c0-2.2-1.8-4-4-4C47.8,2.5,46,4.3,46,6.5z"/>
</g>
</svg>
