<?xml version="1.0" encoding="utf-8"?>
<!-- Generator: Adobe Illustrator 21.0.0, SVG Export Plug-In . SVG Version: 6.00 Build 0)  -->
<svg version="1.1" id="Layer_1" xmlns="http://www.w3.org/2000/svg" xmlns:xlink="http://www.w3.org/1999/xlink" x="0px" y="0px"
	 viewBox="0 0 100 100" style="enable-background:new 0 0 100 100;" xml:space="preserve">
<g>
	<path d="M86,87V2H14v96h61L86,87z M75.3,94.7v-7.4h7.4L75.3,94.7z M16.1,4.1h67.8v81.1H73.2v10.7H16.1V4.1z"/>
	<rect x="56" y="38.9" width="2.1" height="4.8"/>
	<rect x="60.2" y="27.6" width="2.1" height="16"/>
	<rect x="64.5" y="19.5" width="2.1" height="24.2"/>
	<rect x="68.7" y="27.1" width="2.1" height="16.5"/>
	<rect x="72.9" y="34.9" width="2.1" height="8.8"/>
	<rect x="43.8" y="57.1" width="31.3" height="2.1"/>
	<rect x="43.8" y="62.3" width="31.3" height="2.1"/>
	<rect x="43.8" y="73.1" width="31.3" height="2.1"/>
	<rect x="43.8" y="78.4" width="31.3" height="2.1"/>
	<path d="M35.9,45.9c7.6,0,13.7-6.1,13.7-13.7s-6.1-13.7-13.7-13.7s-13.7,6.1-13.7,13.7S28.4,45.9,35.9,45.9z M35.9,20.6
		c6.4,0,11.6,5.2,11.6,11.6s-5.2,11.6-11.6,11.6s-11.6-5.2-11.6-11.6S29.5,20.6,35.9,20.6z"/>
	<polygon points="44.7,31.4 36.7,31.4 36.7,23.5 35.2,23.5 35.2,32.9 44.7,32.9 	"/>
	<polygon points="30.7,58.8 24.1,58.8 24.1,63.1 30.7,63.1 30.7,67.5 40.3,61 30.7,54.4 	"/>
	<polygon points="30.7,74.7 24.1,74.7 24.1,79 30.7,79 30.7,83.4 40.3,76.9 30.7,70.4 	"/>
</g>
</svg>
