<?xml version="1.0" encoding="utf-8"?>
<!-- Generator: Adobe Illustrator 21.0.0, SVG Export Plug-In . SVG Version: 6.00 Build 0)  -->
<svg version="1.1" id="Layer_1" xmlns="http://www.w3.org/2000/svg" xmlns:xlink="http://www.w3.org/1999/xlink" x="0px" y="0px"
	 viewBox="0 0 100 100" style="enable-background:new 0 0 100 100;" xml:space="preserve">
<style type="text/css">
	.st0{fill-rule:evenodd;clip-rule:evenodd;}
</style>
<g>
	<path class="st0" d="M45.5,30.2L45.5,30.2c-0.8-0.7-1.9-1.2-3-1.2C40,29,38,31,38,33.5c0,1.3,0.6,2.5,1.5,3.3l0,0L53.8,50
		L39.5,63.2l0,0c-0.9,0.8-1.5,2-1.5,3.3c0,2.5,2,4.5,4.5,4.5c1.2,0,2.2-0.5,3-1.2v0l18-16.5c0.9-0.9,1.5-2.1,1.5-3.3
		s-0.5-2.5-1.5-3.3L45.5,30.2z M50,2C23.5,2,2,23.5,2,50c0,26.5,21.5,48,48,48c26.5,0,48-21.5,48-48C98,23.5,76.5,2,50,2L50,2z
		 M50,89c-21.5,0-39-17.5-39-39c0-21.5,17.5-39,39-39c21.5,0,39,17.5,39,39C89,71.5,71.5,89,50,89L50,89z M50,89"/>
</g>
</svg>
