<?xml version="1.0" encoding="utf-8"?>
<!-- Generator: Adobe Illustrator 21.0.0, SVG Export Plug-In . SVG Version: 6.00 Build 0)  -->
<svg version="1.1" id="Layer_1" xmlns="http://www.w3.org/2000/svg" xmlns:xlink="http://www.w3.org/1999/xlink" x="0px" y="0px"
	 viewBox="0 0 100 100" style="enable-background:new 0 0 100 100;" xml:space="preserve">
<style type="text/css">
	.st0{clip-path:url(#SVGID_2_);}
</style>
<g>
	<g>
		<defs>
			<rect id="SVGID_1_" x="2.5" y="7.1" width="95" height="85.8"/>
		</defs>
		<clipPath id="SVGID_2_">
			<use xlink:href="#SVGID_1_"  style="overflow:visible;"/>
		</clipPath>
		<path class="st0" d="M84.9,65.7c-0.8,1.7-1.2,2.4-2,3.7c-3.3-0.9-9.3-2.1-13.7-2.7c0.3-1.5,0.3-1.6,0.7-3.8l0-0.1l-2.1-7.1l-0.4,3
			c-0.3,2.6-0.7,5.2-1.2,7.6c-5.6-0.7-10.6-0.9-15.1-1.1v-3.8l-1.7-5.3c-1.7,6.3-1.3,4.2-1.4,9.1l-5.9,0.2c-3.6,0.2-7,0.5-9.5,0.8
			l0-0.2c-0.5-2.4-0.9-4.9-1.2-7.4l-0.3-2.9L29,62.4l0,0.2c0.3,1.7,0.4,2.5,0.7,4c-4.5,0.7-8.7,1.5-13.4,2.9c-0.7-1.1-1.2-2.1-2-3.7
			l-0.2-0.4h-3.4l0.4,0.9c14.9,33.2,62,33.1,76.8,0l0.4-0.9H85L84.9,65.7z M51.1,88.1V68.3c4.1,0.1,9.2,0.4,14.4,1
			c-1.4,5.9-3.7,12.1-5.9,17.4C56.6,87.6,53.9,88,51.1,88.1L51.1,88.1z M63.7,85.5c0.5-1.5,3.2-8.1,4.9-15.7
			c3.8,0.5,7.9,1.3,12.5,2.4C76.5,78.4,70.7,82.7,63.7,85.5L63.7,85.5z M35.2,85.4c-6.8-2.8-12.5-7-17.1-13.3
			c3.4-0.9,8-1.9,12.2-2.5C31.5,75,33.2,80.2,35.2,85.4L35.2,85.4z M48.1,68.3v19.8c-2.9-0.2-5.7-0.5-9-1.4
			c-2.1-5.2-4.3-11.7-5.7-17.5C37.9,68.6,43.6,68.3,48.1,68.3L48.1,68.3z M48.1,68.3"/>
	</g>
	<path d="M90.5,39.5C86,20.4,69.2,7.1,49.6,7.1c-19.4,0-36.2,13.2-40.8,32.1l0,0.2l1.9,7.2l0.5-3.1c0.8-5.6,2.8-10.7,5.8-15.3
		c3.4,0.9,7.9,1.8,12,2.4c-0.4,2.9-0.6,5.6-0.8,8.3h3c0.2-2.5,0.4-5.4,0.8-7.9c5.4,0.7,10.9,1.1,16.2,1.2v6.6h3.1v-6.6
		c5.3,0,10.8-0.3,16-1c0.3,2.4,0.6,4.7,0.7,7.1l0,0.6h3l-0.1-0.7c-0.2-3.1-0.5-5.9-0.8-7.4c3.7-0.6,8.7-1.6,12.2-2.6
		c3,4.7,5,9.7,5.8,15.5l0.4,3l2-6.9L90.5,39.5z M80.5,25.4c-3.7,1-7.7,1.8-10.9,2.3c-0.9-5.2-1.6-8.3-3.3-13.7
		C71.8,16.6,76.2,20,80.5,25.4L80.5,25.4z M66.6,28.1c-5.1,0.7-10.6,1-15.5,1V10.2c3.9,0.2,7.7,0.9,11.4,2.2l0.1,0l0,0.1
		C64.4,17.1,65.9,23.4,66.6,28.1L66.6,28.1z M32.5,14.1c-1.2,3.9-2.2,7.6-3.2,13.3c-3.6-0.6-7-1.2-10.6-2
		C22.8,20.2,27.2,16.8,32.5,14.1L32.5,14.1z M36.2,12.5c3.4-1.3,7.5-2.1,11.8-2.3V29c-6-0.2-10.5-0.5-15.8-1.2
		C33.2,22.7,34.5,17.4,36.2,12.5L36.2,12.5z M36.2,12.5"/>
	<path d="M15.5,52.3c0.7-2.2,1.4-4.4,1.9-6.8h0.1c0.5,2.4,1.1,4.5,1.8,6.8l3.2,9.9h3.4l6.7-20.7h-3.7l-3,10.4
		c-0.7,2.4-1.2,4.6-1.6,6.7h-0.1c-0.5-2.1-1.1-4.3-1.8-6.8l-3.2-10.4H16L12.6,52c-0.7,2.2-1.4,4.4-1.8,6.5h-0.1
		c-0.4-2.1-0.9-4.3-1.5-6.6L6.4,41.4H2.5l6.3,20.7h3.4L15.5,52.3z M15.5,52.3"/>
	<path d="M56.4,58.5h-0.1c-0.5-2.1-1.1-4.3-1.8-6.8l-3.2-10.4h-3.2L44.7,52c-0.7,2.2-1.4,4.5-1.8,6.6h-0.1c-0.4-2.1-0.9-4.3-1.5-6.6
		l-2.8-10.5h-3.9l6.3,20.7h3.4l3.3-9.9c0.7-2.2,1.4-4.4,1.9-6.9h0.1c0.5,2.4,1.1,4.5,1.8,6.8l3.2,9.9H58l6.7-20.7H61l-3,10.4
		C57.3,54.2,56.8,56.4,56.4,58.5L56.4,58.5z M56.4,58.5"/>
	<path d="M93,41.4l-3,10.4c-0.7,2.5-1.2,4.6-1.6,6.7h-0.1c-0.5-2.1-1.1-4.3-1.8-6.8l-3.2-10.4h-3.2L76.7,52
		c-0.7,2.2-1.4,4.5-1.8,6.6h-0.1c-0.4-2.1-0.9-4.3-1.5-6.6l-2.7-10.5h-3.9l6.2,20.7h3.4l3.3-9.9c0.7-2.2,1.4-4.4,1.9-6.8h0.1
		c0.5,2.4,1.1,4.5,1.8,6.8l3.2,9.9h3.4l6.7-20.7H93z M93,41.4"/>
</g>
</svg>
